<svg height="610.33611" viewBox="0 0 989.06996 610.33611" width="989.06996" xmlns="http://www.w3.org/2000/svg"><path d="m388.42235 333.01974h748.72329v38h-748.72329z" fill="#f2f2f2" transform="matrix(.8603 .50978 -.50978 .8603 180.54469 -484.50838)"/><path d="m248.42235 365.01974h748.72329v38h-748.72329z" fill="#f2f2f2" transform="matrix(.8603 .50978 -.50978 .8603 177.30033 -408.66897)"/><path d="m124.42235 400.01974h748.72329v38h-748.72329z" fill="#f2f2f2" transform="matrix(.8603 .50978 -.50978 .8603 177.82043 -340.56695)"/><circle cx="569.51064" cy="245.75604" fill="#3f3d56" r="201.66853"/><path d="m674.97566 427.41442a35.94961 35.94961 0 1 1 35.94961-35.94961 35.99039 35.99039 0 0 1 -35.94961 35.94961zm0-70.14558a34.196 34.196 0 1 0 34.196 34.196 34.23446 34.23446 0 0 0 -34.196-34.196z" fill="#ed008c" opacity=".3" transform="translate(-105.46502 -144.83195)"/><path d="m674.97566 459.85674a68.39194 68.39194 0 1 1 68.39194-68.39193 68.4692 68.4692 0 0 1 -68.39194 68.39193zm0-135.03023a66.6383 66.6383 0 1 0 66.6383 66.6383 66.71355 66.71355 0 0 0 -66.6383-66.6383z" fill="#ed008c" opacity=".3" transform="translate(-105.46502 -144.83195)"/><path d="m674.97566 487.915a96.45017 96.45017 0 1 1 96.45017-96.45017 96.55931 96.55931 0 0 1 -96.45017 96.45017zm0-191.1467a94.69653 94.69653 0 1 0 94.69653 94.69653 94.80393 94.80393 0 0 0 -94.69653-94.69655z" fill="#ed008c" opacity=".3" transform="translate(-105.46502 -144.83195)"/><path d="m674.97566 524.7414c-73.48888 0-133.2766-59.78728-133.2766-133.27659 0-73.48888 59.78772-133.2766 133.2766-133.2766 73.48931 0 133.2766 59.78772 133.2766 133.2766 0 73.48931-59.78726 133.27659-133.2766 133.27659zm0-264.79955c-72.52215 0-131.523 59.00081-131.523 131.523 0 72.52172 59.00081 131.52295 131.523 131.52295 72.52172 0 131.523-59.00123 131.523-131.52295-.00004-72.52219-59.00128-131.523-131.523-131.523z" fill="#ed008c" opacity=".3" transform="translate(-105.46502 -144.83195)"/><path d="m674.97566 555.43009c-90.4109 0-163.96529-73.55438-163.96529-163.96528s73.55439-163.96529 163.96529-163.96529 163.96528 73.55439 163.96528 163.96529-73.55438 163.96528-163.96528 163.96528zm0-326.17693c-89.44375 0-162.21165 72.7679-162.21165 162.21165 0 89.44417 72.7679 162.21164 162.21165 162.21164 89.44417 0 162.21165-72.76747 162.21165-162.21164 0-89.44375-72.76748-162.21165-162.21165-162.21165z" fill="#ed008c" opacity=".3" transform="translate(-105.46502 -144.83195)"/><circle cx="569.51064" cy="245.75604" fill="#ed008c" opacity=".3" r="16.65957"/><circle cx="612.4748" cy="293.98113" fill="#ed008c" opacity=".3" r="16.65957"/><circle cx="495.85778" cy="286.96657" fill="#ed008c" opacity=".3" r="16.65957"/><circle cx="569.51064" cy="245.75604" fill="#2f2e41" r="7.89138"/><circle cx="495.85778" cy="286.96657" fill="#2f2e41" r="7.89138"/><circle cx="612.4748" cy="294.85795" fill="#2f2e41" r="7.89138"/><circle cx="937.77492" cy="157.19725" fill="#ed008c" r="7.89138"/><path d="m569.949 246.194h-1.754v-90.312h348.098v1.754h-346.344z" fill="#2f2e41"/><path d="m1043.23994 324.82651a22.79732 22.79732 0 1 1 22.79731-22.79731 22.82289 22.82289 0 0 1 -22.79731 22.79731zm0-43.841a21.04368 21.04368 0 1 0 21.04367 21.04368 21.06779 21.06779 0 0 0 -21.04367-21.04367z" fill="#2f2e41" transform="translate(-105.46502 -144.83195)"/><circle cx="885.16573" cy="384.29356" fill="#ed008c" r="7.89138"/><path d="m990.63075 551.92281a22.79731 22.79731 0 1 1 22.79732-22.79731 22.82261 22.82261 0 0 1 -22.79732 22.79731zm0-43.841a21.04367 21.04367 0 1 0 21.04368 21.04367 21.06778 21.06778 0 0 0 -21.04368-21.04365z" fill="#2f2e41" transform="translate(-105.46502 -144.83195)"/><circle cx="251.22508" cy="194.02368" fill="#ed008c" r="7.89138"/><g fill="#2f2e41"><path d="m356.6901 361.65294a22.79732 22.79732 0 1 1 22.79732-22.79732 22.82316 22.82316 0 0 1 -22.79732 22.79732zm0-43.841a21.04368 21.04368 0 1 0 21.04368 21.04367 21.06778 21.06778 0 0 0 -21.04368-21.04361z" transform="translate(-105.46502 -144.83195)"/><path d="m496.735 286.967h-1.754v-88.573l-221.849-3.494.027-1.753 223.576 3.521z"/><path d="m863.245 385.17h-251.647v-90.312h1.754v88.559h249.893z"/><path d="m889.54983 198.40778h96.45017v6.13774h-96.45017z"/><path d="m889.54983 215.94417h96.45017v6.13774h-96.45017z"/><path d="m889.54983 233.48057h96.45017v6.13774h-96.45017z"/><path d="m836.94065 425.50408h96.45017v6.13774h-96.45017z"/><path d="m836.94065 443.04048h96.45017v6.13774h-96.45017z"/><path d="m836.94065 460.57687h96.45017v6.13774h-96.45017z"/><path d="m203 236.11103h96.45017v6.13774h-96.45017z"/><path d="m203 253.64742h96.45017v6.13774h-96.45017z"/><path d="m203 271.18381h96.45017v6.13774h-96.45017z"/></g><ellipse cx="577.40202" cy="575.44697" fill="#f2f2f2" rx="192.02352" ry="6.13774"/><path d="m0 608.33611h648v2h-648z" fill="#2f2e41"/><path d="m179.45615 324.01867s9.17859 26.12369 3.53023 30.14272 19.06323 36.84111 19.06323 36.84111l29.65392-8.03806-16.239-27.46337s-2.11814-27.46337-2.11814-31.4824-33.89024 0-33.89024 0z" fill="#ffb8b8" transform="translate(-105.46502 -144.83195)"/><path d="m179.45615 324.01867s9.17859 26.12369 3.53023 30.14272 19.06323 36.84111 19.06323 36.84111l29.65392-8.03806-16.239-27.46337s-2.11814-27.46337-2.11814-31.4824-33.89024 0-33.89024 0z" opacity=".1" transform="translate(-105.46502 -144.83195)"/><path d="m164.04987 510.23371s-2.67936 33.49191 0 50.9077 6.69838 65.64415 6.69838 65.64415 0 91.098 14.73644 92.43768 25.45385 2.67935 26.79353-2.67935-6.69838-8.03806-2.67935-10.71741 5.3587-12.05709 0-22.77451 0-119.2312 0-119.2312l25.45385 68.3235s2.67935 56.26641 5.35871 64.30447-2.67936 22.7745 6.69838 24.11418 20.09515-6.69839 25.45385-9.37774-8.03806-2.67935-5.3587-4.019 10.71741-5.3587 8.03806-6.69838-5.35871-65.64415-5.35871-65.64415-7.36822-137.31684-16.746-142.67555-15.40628 3.87135-15.40628 3.87135z" fill="#2f2e41" transform="translate(-105.46502 -144.83195)"/><path d="m188.164 713.86453v10.71747s-12.05708 29.1332 0 29.1332 21.43483 3.019 21.43483-1v-36.17131z" fill="#2f2e41" transform="translate(-105.46502 -144.83195)"/><path d="m267.205 713.8455v10.71742s12.05709 29.1332 0 29.1332-21.43483 3.019-21.43483-1v-36.17126z" fill="#2f2e41" transform="translate(-105.46502 -144.83195)"/><circle cx="92.7466" cy="174.49786" fill="#ffb8b8" r="24.11418"/><path d="m190.8434 364.209s6.69838 20.09515 17.41579 16.07612l10.71741-4.019 18.75547 128.60888s-14.73644 21.43482-36.17126 8.03806-10.71741-148.70406-10.71741-148.70406z" fill="#d0cde1" transform="translate(-105.46502 -144.83195)"/><path d="m209.59887 360.18994 6.02854-12.72693s35.50143 16.746 40.86014 22.10466 5.3587 13.39677 5.3587 13.39677l-9.37773 33.49191s2.67935 73.68221 2.67935 76.36156 9.37773 17.4158 2.67935 12.05709-8.03806-10.71741-13.39676-2.67935-17.4158 17.41579-17.4158 17.41579z" fill="#3f3d56" transform="translate(-105.46502 -144.83195)"/><path d="m256.48755 456.64665-4.019 37.51094s-24.11418 21.43482-18.75547 22.7745 8.038-4.019 8.038-4.019 9.37774 9.37774 14.73645 4.019 18.75547-56.26641 18.75547-56.26641z" fill="#ffb8b8" transform="translate(-105.46502 -144.83195)"/><path d="m198.72534 285.2496c-5.34583-.19111-11.06666-.28564-15.57394 2.59515a22.8 22.8 0 0 0 -5.38236 5.26887c-4.38983 5.54948-8.18285 12.532-6.55225 19.41738l1.89389-.73864a12.40116 12.40116 0 0 1 -1.1962 5.31349c.26669-.77549 1.15983.47814.92072 1.26257l-2.08628 6.8443a6.44383 6.44383 0 0 1 8.2178 4.90354c.23843-7.94972 1.06312-17.06552 7.51192-21.7204 3.2521-2.34744 7.36794-3.06406 11.32795-3.70041 3.6532-.587 7.48294-1.14687 10.98208.0558s6.4789 4.78129 5.68563 8.39532c1.61342-.55578 3.4179.56865 4.21525 2.07737a10.91173 10.91173 0 0 1 .86323 4.99482c1.71983 1.21547 3.67706-1.19812 4.378-3.184 1.64525-4.66158 3.10762-9.62374 2.22132-14.487s-4.84926-9.51094-9.79263-9.52744a3.4325 3.4325 0 0 0 .89269-2.41654l-4.07448-.34427a4.50323 4.50323 0 0 0 2.69093-1.41871c-1.63588 1.79999-14.49789-3.49663-17.14327-3.5912z" fill="#2f2e41" transform="translate(-105.46502 -144.83195)"/><path d="m197.54178 356.17091s-10.9058-10.687-14.83064-10.03238-9.28354 10.03238-9.28354 10.03238-32.15223 10.71741-30.81256 21.43482 16.07612 62.9648 16.07612 62.9648 12.05709 62.96479 1.33968 69.66318 50.9077 24.11417 52.24738 16.07611 4.019-88.41864 0-100.47573-14.73644-69.66318-14.73644-69.66318z" fill="#3f3d56" transform="translate(-105.46502 -144.83195)"/><path d="m154.67213 468.70374 18.75547 8.038s36.17127 5.35871 36.17127-9.37773-36.17127-6.69838-36.17127-6.69838l-12.05789-3.85524z" fill="#ffb8b8" transform="translate(-105.46502 -144.83195)"/><path d="m244.43046 377.60573h16.5651s11.5681 50.90771 12.90778 56.26642 4.019 30.81256 2.67935 30.81256-28.1332-5.35871-28.1332-1.33968z" fill="#3f3d56" transform="translate(-105.46502 -144.83195)"/><path d="m158.69116 369.56767-16.07612 4.019-12.05704 71.00289s-4.019 18.75547 2.67936 20.09515 25.45385 12.05708 25.45385 12.05708 2.67935-20.09514 8.03806-20.09514l-13.39676-10.71742 8.038-46.88867z" fill="#3f3d56" transform="translate(-105.46502 -144.83195)"/><path d="m614.465 714.16805h-26v-26h26zm-24-2h22v-22h-22z" fill="#3f3d56" transform="translate(-105.46502 -144.83195)"/><circle cx="525" cy="559.33611" fill="#ed008c" r="10"/></svg>